Simulation
nRows=36
nColumns=15
endheader
time  TH_x TH_y TH_z SC_y  SC_z  SC_x  AC_y  AC_z  AC_x  GH_y  GH_z  GH_yy  EL_x  PS_y
0.75  0.000000  0.000000  0.000000  -33.97698879439637  2.3971538846356797  20.027092739276014  60.94603608309692  1.6634395129342276  -12.575041675423545  20.628134537171906  33.183079209387735  -17.422788340116668  19.94608241073615  0.000000
0.765  0.000000  0.000000  0.000000  -34.14372882294273  2.547912665939137  20.280416897535396  61.03120514716283  2.0373309712456753  -12.495123115917874  20.703028194290184  33.68967899312675  -17.757789794717343  19.74385047189174  0.000000
0.78  0.000000  0.000000  0.000000  -34.31983784930888  2.7028881427631695  20.54008160457131  61.1158699159744  2.404760484051985  -12.405288306059745  20.78491749076529  34.180709288914095  -18.091690607118572  19.540844541440148  0.000000
0.7949999999999999  0.000000  0.000000  0.000000  -34.50599160326569  2.8614616031155693  20.806530236062887  61.20172921519237  2.764028401345854  -12.304790513381642  20.873013340875172  34.65626654884355  -18.4246320412354  19.337300458899023  0.000000
0.8099999999999999  0.000000  0.000000  0.000000  -34.70284054506433  3.022928185836214  21.080316528860383  61.2904492200489  3.1131781939313914  -12.192963353855124  20.966578053440426  35.11666323833036  -18.756691780937114  19.13340756731793  0.000000
0.825  0.000000  0.000000  0.000000  -34.91106430369941  3.1864481883342846  21.362032261597513  61.383902448591364  3.450268773193682  -12.069115666384947  21.064629416268815  35.56212645347461  -19.087792560480608  18.929423418187127  0.000000
0.84  0.000000  0.000000  0.000000  -35.13136173467037  3.3511637616645102  21.652141019435334  61.483995497786744  3.7733216196411283  -11.932940366341201  21.166249898972676  35.993148989503986  -19.417865275110138  18.725721709695414  0.000000
0.855  0.000000  0.000000  0.000000  -35.364327701557954  3.516086125499142  21.950986539718574  61.59261456276076  4.080759797221828  -11.784276371088996  21.27038145157558  36.40996521463649  -19.74657573304924  18.52280082500057  0.000000
0.87  0.000000  0.000000  0.000000  -35.610105710202845  3.6799744035438176  22.258651229650585  61.71115261770653  4.37140575231499  -11.623613654712972  21.37623996487168  36.81299748210251  -20.073579172825152  18.321149503778933  0.000000
0.885  0.000000  0.000000  0.000000  -35.868331826988666  3.84148091148523  22.57485988412127  61.840432933252785  4.644859558783732  -11.451789560552497  21.483231849293183  37.2023535015809  -20.398245214409464  18.12141153810234  0.000000
0.8999999999999999  0.000000  0.000000  0.000000  -36.138036299246146  3.999272063659256  22.89888179821294  61.98047498389064  4.901263289433756  -11.270402727157997  21.591222574855102  37.578286806489594  -20.719973460622164  17.924402498144794  0.000000
0.9149999999999999  0.000000  0.000000  0.000000  -36.418040121847085  4.15204526169602  23.229658472309502  62.13060455263314  5.1415128712809945  -11.081211806037748  21.70038677686391  37.940676402613896  -21.037750673105034  17.73122105336511  0.000000
0.9299999999999999  0.000000  0.000000  0.000000  -36.70670159600685  4.298638052269376  23.56570422894673  62.28951595997449  5.366792012792603  -10.88646676555781  21.8110733051861  38.28966487349734  -21.350686287929364  17.54294520974073  0.000000
0.945  0.000000  0.000000  0.000000  -37.00199409340178  4.438110752232755  23.905467441375418  62.45563941573952  5.578526188830904  -10.688241549512005  21.92309992971962  38.62497760376259  -21.657785290444878  17.36054374058228  0.000000
0.96  0.000000  0.000000  0.000000  -37.3020222355384  4.5700114013609525  24.247438310855696  62.62743218103493  5.777519343280102  -10.488447771863335  22.035917801615554  38.94665736960023  -21.958225656223487  17.18452672158763  0.000000
0.975  0.000000  0.000000  0.000000  -37.605099169547586  4.694259935872193  24.58951961056143  62.803199166756  5.964899475585627  -10.288054490374657  22.14819005351375  39.25441210070405  -22.25091380599867  17.0154224701254  0.000000
0.99  0.000000  0.000000  0.000000  -37.90926462486149  4.810888981114722  24.929811055264533  62.98106291960238  6.141327967473178  -10.088275970806121  22.258049929338778  39.54819279047905  -22.534893095343186  16.854012849335774  0.000000
1.005  0.000000  0.000000  0.000000  -38.213067058079304  4.92006172591458  25.26737915415722  63.16007131802898  6.30692127427334  -9.889956566592028  22.364087547302205  39.82780454942929  -22.80912680880929  16.700195499875733  0.000000
1.02  0.000000  0.000000  0.000000  -38.51490628794365  5.021955825503903  25.60126605205085  63.33925785186706  6.461954939153144  -9.694316022683577  22.46557066867722  40.0934589616672  -23.07274154757277  16.554515269300985  0.000000
1.035  0.000000  0.000000  0.000000  -38.813477544182426  5.116258628767281  25.930639383993686  63.5179882377246  6.6071484042864  -9.502272869475863  22.562124647249362  40.345312383454385  -23.324527114559146  16.417509942193306  0.000000
1.05  0.000000  0.000000  0.000000  -39.10733834431351  5.202675101465141  26.254083655884333  63.69554198263937  6.743182959262752  -9.314833602652039  22.653240098940277  40.58424843772142  -23.563613769282824  16.28974811963093  0.000000
1.065  0.000000  0.000000  0.000000  -39.394896053335266  5.281311295182772  26.570381666638355  63.87101167842637  6.870786466159977  -9.13295075306572  22.737795923901995  40.81044212349224  -23.78902119387557  16.172291224756286  0.000000
1.08  0.000000  0.000000  0.000000  -39.67483231362908  5.352509618260288  26.878155583152783  64.04343775821468  6.990172732054678  -8.957226803836939  22.814622151308246  41.02465544291255  -23.999937574366545  16.06531577945028  0.000000
1.095  0.000000  0.000000  0.000000  -39.94600090041897  5.416664827973498  27.17638725077809  64.21203307147155  7.101548689176972  -8.788031953787955  22.882170287426923  41.227072449299456  -24.195771247797957  15.969080677602294  0.000000
1.1099999999999999  0.000000  0.000000  0.000000  -40.20742811117445  5.474252405989676  27.463970127926114  64.37587766310412  7.204709177782686  -8.625957175940178  22.939060573040553  41.41854615522173  -24.375972541424865  15.883539656498986  0.000000
1.125  0.000000  0.000000  0.000000  -40.458448059214724  5.525672614104558  27.74029829796988  64.53440896501601  7.299427151389263  -8.471425650950106  22.983718169815496  41.59940796111468  -24.540197848026747  15.808433916398357  0.000000
1.14  0.000000  0.000000  0.000000  -40.697877105691994  5.571518890987559  28.00457520063653  64.6862112652659  7.385409621788128  -8.325335265853786  23.014688758000634  41.77032892535004  -24.68801612666143  15.744014360992976  0.000000
1.155  0.000000  0.000000  0.000000  -40.92478087164224  5.612504460543002  28.256398251945114  64.83038588287734  7.46277235348791  -8.188214215970392  23.031105304498773  41.93131123154316  -24.81907511951637  15.690352696302039  0.000000
1.17  0.000000  0.000000  0.000000  -41.1385497069145  5.649476899137134  28.49488854233302  64.96617806292826  7.531473211611322  -8.059934422314173  23.033260530516472  42.08338247531765  -24.93360559882592  15.647018020378386  0.000000
1.185  0.000000  0.000000  0.000000  -41.33869460075063  5.683445008669911  28.719798752852533  65.09306083932891  7.591751410817931  -7.9403001967833475  23.021915250213606  42.22669488135587  -25.031814692819623  15.614236800691991  0.000000
1.2  0.000000  0.000000  0.000000  -41.52443438443446  5.715362304374783  28.930566211209886  65.20998315969379  7.643504395004398  -7.829484532242153  22.997923142868334  42.36228112513938  -25.11430388774512  15.592346311491388  0.000000
1.2149999999999999  0.000000  0.000000  0.000000  -41.695567181558545  5.745335873227043  29.127019130544447  65.3162040027438  7.687447143340672  -7.727194348439312  22.961956125516686  42.49026079832738  -25.181596588960293  15.58127486565847  0.000000
1.23  0.000000  0.000000  0.000000  -41.852080689204044  5.774242272701387  29.30771219833793  65.41100007625806  7.724630080298781  -7.63349618291074  22.914602011181422  42.611344182842274  -25.23493365254752  15.581002134409223  0.000000
1.2449999999999999  0.000000  0.000000  0.000000  -41.99422160464947  5.802119613166004  29.47157333307819  65.49467942800595  7.757391969244084  -7.548556417909026  22.856021760032313  42.724613557180966  -25.27544118015872  15.591020197331138  0.000000
1.26  0.000000  0.000000  0.000000  -42.12209086332961  5.828474454044633  29.617281382933292  65.56683255755736  7.787549246276322  -7.472612128005476  22.787142296123225  42.82974756196622  -25.30479401558351  15.61058968005335  0.000000
1.275  0.000000  0.000000  0.000000  -42.23692207200607  5.852462509759742  29.743491110025346  65.62856267647248  7.817441253109465  -7.405771125893149  22.70988502855087  42.925285075250144  -25.32502335641518  15.638791515455733  0.000000
